<svg width="15" height="14" viewBox="0 0 15 14" fill="none" xmlns="http://www.w3.org/2000/svg">
<g id="angle-down 1">
<path id="Vector" d="M10.6251 5.34916C10.508 5.24052 10.3496 5.17953 10.1844 5.17953C10.0193 5.17953 9.86091 5.24052 9.74381 5.34916L7.50006 7.41416L5.28756 5.34916C5.17046 5.24052 5.01205 5.17953 4.84693 5.17953C4.68182 5.17953 4.52341 5.24052 4.40631 5.34916C4.34773 5.40339 4.30123 5.46791 4.2695 5.53899C4.23777 5.61008 4.22144 5.68632 4.22144 5.76333C4.22144 5.84034 4.23777 5.91658 4.2695 5.98767C4.30123 6.05875 4.34773 6.12327 4.40631 6.1775L7.05631 8.65083C7.11441 8.70551 7.18354 8.7489 7.2597 8.77852C7.33586 8.80813 7.41755 8.82338 7.50006 8.82338C7.58257 8.82338 7.66426 8.80813 7.74042 8.77852C7.81658 8.7489 7.88571 8.70551 7.94381 8.65083L10.6251 6.1775C10.6836 6.12327 10.7301 6.05875 10.7619 5.98767C10.7936 5.91658 10.8099 5.84034 10.8099 5.76333C10.8099 5.68632 10.7936 5.61008 10.7619 5.53899C10.7301 5.46791 10.6836 5.40339 10.6251 5.34916Z" fill="white"/>
</g>
</svg>
