<svg width="20" height="23" viewBox="0 0 20 23" fill="none" xmlns="http://www.w3.org/2000/svg">
<g id="search 1">
<path id="Vector" d="M18.0916 19.4446L14.9999 15.9179C16.2 14.1971 16.7812 12.013 16.6239 9.81458C16.4667 7.61616 15.583 5.57058 14.1545 4.09845C12.7261 2.62632 10.8614 1.83953 8.94402 1.89987C7.02662 1.9602 5.20219 2.86308 3.84587 4.42284C2.48956 5.98261 1.70445 8.0807 1.65198 10.2857C1.59951 12.4907 2.28368 14.6351 3.56379 16.2778C4.84391 17.9205 6.62267 18.9368 8.53434 19.1176C10.446 19.2984 12.3453 18.6301 13.8416 17.25L16.9083 20.7767C16.9857 20.8665 17.0779 20.9378 17.1794 20.9864C17.281 21.0351 17.3899 21.0601 17.4999 21.0601C17.6099 21.0601 17.7189 21.0351 17.8204 20.9864C17.922 20.9378 18.0141 20.8665 18.0916 20.7767C18.2418 20.598 18.3257 20.3592 18.3257 20.1106C18.3257 19.8621 18.2418 19.6233 18.0916 19.4446ZM9.16659 17.25C8.01286 17.25 6.88505 16.8566 5.92576 16.1194C4.96647 15.3823 4.2188 14.3346 3.77729 13.1088C3.33578 11.883 3.22026 10.5342 3.44534 9.23294C3.67042 7.93165 4.22599 6.73634 5.0418 5.79816C5.8576 4.85998 6.89701 4.22107 8.02856 3.96223C9.16012 3.70339 10.333 3.83624 11.3989 4.34397C12.4648 4.85171 13.3759 5.71154 14.0168 6.81472C14.6578 7.9179 14.9999 9.21488 14.9999 10.5417C14.9999 12.3208 14.3853 14.0271 13.2914 15.2852C12.1974 16.5432 10.7137 17.25 9.16659 17.25Z" fill="white"/>
</g>
</svg>
